<?xml version="1.0" standalone="no"?>
<!DOCTYPE svg PUBLIC "-//W3C//DTD SVG 20010904//EN"
 "http://www.w3.org/TR/2001/REC-SVG-20010904/DTD/svg10.dtd">
<svg version="1.0" xmlns="http://www.w3.org/2000/svg"
 width="376.000000pt" height="376.000000pt" viewBox="0 0 376.000000 376.000000"
 preserveAspectRatio="xMidYMid meet">
<metadata>
Created by potrace 1.14, written by Peter Selinger 2001-2017
</metadata>
<g transform="translate(0.000000,376.000000) scale(0.100000,-0.100000)"
fill="#000000" stroke="none">
<path d="M1638 3720 c-25 -26 -29 -36 -24 -62 12 -60 67 -84 125 -53 58 30 55
101 -6 133 -35 19 -63 14 -95 -18z"/>
<path d="M2035 3739 c-76 -43 -48 -149 39 -149 68 0 105 84 58 132 -22 23 -72
31 -97 17z"/>
<path d="M1268 3640 c-24 -24 -29 -36 -24 -58 10 -43 53 -75 90 -68 73 15 102
94 50 135 -39 30 -80 27 -116 -9z"/>
<path d="M2384 3647 c-74 -64 25 -179 104 -120 46 34 42 102 -8 128 -40 21
-64 19 -96 -8z"/>
<path d="M929 3491 c-36 -36 -37 -73 -4 -106 64 -65 172 13 131 94 -27 51 -83
56 -127 12z"/>
<path d="M2745 3508 c-51 -28 -60 -80 -20 -121 33 -32 55 -37 94 -21 64 27 61
113 -5 140 -39 17 -43 17 -69 2z"/>
<path d="M1723 3349 c-43 -27 -59 -76 -40 -121 19 -45 39 -60 91 -65 39 -5 48
-2 81 29 30 27 37 41 37 70 0 89 -92 137 -169 87z"/>
<path d="M2124 3339 c-31 -11 -74 -67 -74 -95 0 -79 91 -135 159 -99 66 34 81
103 34 155 -30 33 -86 52 -119 39z"/>
<path d="M631 3274 c-23 -19 -31 -34 -31 -58 0 -73 84 -103 135 -49 32 35 32
76 0 108 -31 32 -66 32 -104 -1z"/>
<path d="M1387 3290 c-82 -25 -109 -116 -51 -174 32 -31 77 -39 118 -22 43 18
66 51 66 96 0 45 -23 78 -66 96 -18 8 -35 14 -36 13 -2 0 -16 -5 -31 -9z"/>
<path d="M3050 3287 c-56 -29 -59 -93 -4 -136 36 -28 60 -27 95 8 45 45 34 97
-28 129 -27 15 -32 15 -63 -1z"/>
<path d="M2474 3210 c-32 -13 -64 -59 -64 -92 0 -59 44 -105 110 -115 43 -6
110 60 110 109 0 27 -42 80 -75 94 -39 16 -51 16 -81 4z"/>
<path d="M1043 3115 c-61 -26 -90 -95 -62 -148 36 -66 108 -76 167 -23 32 30
37 40 36 76 -2 72 -76 122 -141 95z"/>
<path d="M376 2995 c-55 -59 -26 -134 51 -135 36 0 83 47 83 84 0 69 -87 101
-134 51z"/>
<path d="M3288 2999 c-41 -31 -39 -88 3 -123 34 -29 50 -32 82 -14 51 27 62
80 25 122 -32 36 -76 42 -110 15z"/>
<path d="M2775 2988 c-65 -38 -74 -108 -21 -165 29 -32 41 -38 75 -38 82 0
136 103 84 162 -46 50 -96 65 -138 41z"/>
<path d="M753 2850 c-94 -57 -72 -183 34 -197 34 -4 45 -1 76 27 63 55 57 139
-13 175 -38 20 -58 19 -97 -5z"/>
<path d="M3034 2703 c-27 -5 -72 -52 -74 -78 -5 -46 2 -65 34 -99 27 -30 40
-36 72 -36 87 1 132 93 82 167 -20 28 -67 56 -87 52 -3 -1 -16 -4 -27 -6z"/>
<path d="M204 2688 c-25 -12 -44 -48 -44 -84 0 -32 42 -74 74 -74 34 0 75 38
82 77 5 27 1 37 -24 63 -32 31 -52 36 -88 18z"/>
<path d="M3478 2676 c-31 -23 -38 -60 -20 -97 22 -44 55 -60 93 -47 39 13 58
43 53 82 -7 59 -82 96 -126 62z"/>
<path d="M1905 2558 c-51 -30 -79 -86 -68 -140 8 -40 62 -93 103 -102 83 -16
165 46 163 124 -1 48 -26 90 -65 113 -34 19 -103 22 -133 5z"/>
<path d="M570 2538 c-111 -41 -87 -208 30 -208 42 0 75 20 95 60 19 37 19 63
0 100 -24 46 -77 66 -125 48z"/>
<path d="M1524 2491 c-53 -32 -77 -76 -71 -128 13 -115 144 -154 228 -66 29
29 34 41 34 81 0 51 -26 95 -68 119 -33 18 -88 15 -123 -6z"/>
<path d="M2245 2363 c-59 -32 -85 -99 -61 -157 35 -85 106 -116 182 -80 76 36
94 126 39 198 -41 54 -104 69 -160 39z"/>
<path d="M3165 2348 c-39 -22 -55 -50 -55 -94 0 -60 38 -103 97 -111 39 -5 46
-2 78 30 26 26 35 43 35 69 0 84 -88 144 -155 106z"/>
<path d="M66 2309 c-34 -40 -33 -73 4 -111 24 -24 36 -29 58 -24 66 16 93 96
47 141 -35 35 -76 33 -109 -6z"/>
<path d="M3614 2330 c-54 -21 -66 -103 -21 -142 29 -26 79 -23 105 5 57 60 -9
165 -84 137z"/>
<path d="M1302 2210 c-82 -19 -124 -115 -87 -194 40 -84 161 -91 219 -13 28
39 29 121 1 159 -16 21 -86 62 -98 57 -1 -1 -17 -5 -35 -9z"/>
<path d="M429 2151 c-16 -16 -29 -35 -30 -43 0 -7 -2 -22 -4 -33 -6 -30 25
-84 58 -101 79 -42 170 41 145 133 -19 74 -114 98 -169 44z"/>
<path d="M2387 1985 c-112 -39 -121 -175 -14 -235 132 -75 258 99 148 204 -37
35 -87 47 -134 31z"/>
<path d="M3219 1972 c-19 -9 -40 -28 -47 -42 -18 -35 -9 -106 18 -135 49 -52
138 -36 166 30 19 47 18 72 -6 111 -30 48 -80 62 -131 36z"/>
<path d="M29 1941 c-33 -33 -36 -58 -14 -101 17 -34 55 -47 94 -34 60 21 68
114 12 147 -41 24 -58 21 -92 -12z"/>
<path d="M3630 1940 c-27 -27 -35 -65 -20 -101 22 -52 78 -65 121 -28 34 29
34 99 0 128 -30 26 -75 27 -101 1z"/>
<path d="M1288 1816 c-72 -26 -107 -90 -86 -160 38 -122 183 -137 241 -25 30
58 -4 156 -63 178 -49 18 -56 19 -92 7z"/>
<path d="M454 1791 c-45 -27 -58 -49 -58 -97 -1 -107 132 -148 190 -58 21 31
20 72 0 113 -27 52 -86 70 -132 42z"/>
<path d="M2260 1632 c-113 -54 -123 -190 -18 -244 53 -28 103 -16 151 36 37
39 39 44 35 94 -6 71 -45 112 -109 118 -24 2 -51 0 -59 -4z"/>
<path d="M3150 1583 c-79 -66 -40 -193 59 -193 71 0 119 65 103 139 -15 70
-107 101 -162 54z"/>
<path d="M61 1564 c-66 -84 48 -189 117 -108 19 22 22 34 17 63 -12 71 -93 97
-134 45z"/>
<path d="M3585 1554 c-31 -34 -32 -75 -2 -108 47 -53 122 -28 133 44 13 79
-77 122 -131 64z"/>
<path d="M1502 1499 c-58 -38 -76 -97 -48 -163 28 -67 132 -100 191 -62 89 58
80 180 -16 228 -45 24 -87 22 -127 -3z"/>
<path d="M1914 1434 c-21 -8 -40 -14 -41 -14 -1 0 -11 -13 -22 -28 -63 -89 -6
-201 103 -205 98 -3 170 101 126 183 -16 31 -60 70 -80 71 -8 0 -22 2 -31 4
-8 1 -33 -3 -55 -11z"/>
<path d="M548 1425 c-28 -16 -58 -62 -58 -89 0 -29 33 -83 60 -100 80 -47 174
28 148 119 -18 66 -94 101 -150 70z"/>
<path d="M3010 1243 c-55 -37 -72 -91 -46 -142 36 -68 126 -77 170 -17 32 42
37 73 22 111 -26 61 -94 84 -146 48z"/>
<path d="M192 1220 c-39 -24 -48 -63 -24 -103 34 -60 112 -62 136 -5 32 76
-44 149 -112 108z"/>
<path d="M3494 1215 c-78 -32 -60 -155 23 -155 45 0 83 37 83 82 -1 61 -51 96
-106 73z"/>
<path d="M752 1105 c-50 -22 -76 -80 -58 -132 12 -38 63 -73 106 -73 54 0 100
46 100 101 0 74 -82 131 -148 104z"/>
<path d="M2773 950 c-47 -28 -67 -63 -60 -107 9 -56 47 -88 103 -88 39 0 50 5
75 32 36 41 45 75 29 113 -13 32 -66 70 -96 70 -11 0 -33 -9 -51 -20z"/>
<path d="M378 895 c-60 -33 -41 -128 30 -149 25 -7 36 -4 61 13 25 18 31 29
31 61 0 30 -6 43 -31 64 -35 29 -52 31 -91 11z"/>
<path d="M3285 876 c-34 -34 -41 -70 -21 -102 59 -89 187 -5 137 89 -23 43
-80 49 -116 13z"/>
<path d="M1045 851 c-75 -21 -105 -95 -66 -155 40 -60 109 -73 160 -30 67 56
41 159 -46 183 -15 4 -37 5 -48 2z"/>
<path d="M2453 728 c-53 -38 -66 -85 -38 -138 49 -96 200 -53 200 56 0 85 -93
132 -162 82z"/>
<path d="M1330 643 c-40 -40 -43 -54 -24 -115 16 -52 114 -77 162 -41 81 60
46 170 -61 189 -34 6 -41 3 -77 -33z"/>
<path d="M619 601 c-16 -16 -29 -39 -29 -51 0 -52 64 -99 111 -81 61 23 71 87
21 133 -41 36 -66 35 -103 -1z"/>
<path d="M2082 593 c-83 -71 -21 -198 87 -178 52 10 91 54 91 105 0 91 -105
134 -178 73z"/>
<path d="M3031 594 c-39 -32 -42 -80 -8 -111 36 -35 77 -34 112 2 35 34 34 86
-1 114 -36 28 -66 26 -103 -5z"/>
<path d="M1732 589 c-70 -27 -87 -102 -38 -164 18 -22 33 -29 74 -33 47 -4 54
-2 82 26 57 58 36 150 -40 172 -41 12 -48 12 -78 -1z"/>
<path d="M941 394 c-62 -26 -61 -108 1 -140 82 -42 157 55 93 119 -33 32 -55
37 -94 21z"/>
<path d="M2734 381 c-71 -44 -43 -141 41 -141 29 0 85 49 85 74 0 28 -22 64
-47 75 -33 15 -43 14 -79 -8z"/>
<path d="M1264 227 c-74 -64 25 -179 104 -120 46 34 42 102 -8 128 -40 21 -64
19 -96 -8z"/>
<path d="M2413 243 c-13 -2 -32 -16 -43 -30 -62 -79 46 -171 117 -100 59 58 9
145 -74 130z"/>
<path d="M1629 141 c-25 -25 -30 -37 -25 -59 16 -66 96 -93 141 -47 48 47 21
120 -47 131 -32 6 -41 2 -69 -25z"/>
<path d="M2040 163 c-60 -22 -77 -86 -35 -128 28 -29 65 -32 106 -8 78 46 15
167 -71 136z"/>
</g>
</svg>
